<?xml version="1.0" encoding="UTF-8" standalone="no"?>
<!-- Created with Inkscape (http://www.inkscape.org/) -->

<svg
   xmlns:dc="http://purl.org/dc/elements/1.1/"
   xmlns:cc="http://creativecommons.org/ns#"
   xmlns:rdf="http://www.w3.org/1999/02/22-rdf-syntax-ns#"
   xmlns:svg="http://www.w3.org/2000/svg"
   xmlns="http://www.w3.org/2000/svg"
   xmlns:sodipodi="http://sodipodi.sourceforge.net/DTD/sodipodi-0.dtd"
   xmlns:inkscape="http://www.inkscape.org/namespaces/inkscape"
   width="156.22253mm"
   height="161.64642mm"
   viewBox="0 0 553.54442 572.76291"
   id="svg2"
   version="1.1"
   inkscape:version="0.91 r13725"
   sodipodi:docname="lapiz.svg">
  <defs
     id="defs4" />
  <sodipodi:namedview
     id="base"
     pagecolor="#ffffff"
     bordercolor="#666666"
     borderopacity="1.0"
     inkscape:pageopacity="0.0"
     inkscape:pageshadow="2"
     inkscape:zoom="0.35"
     inkscape:cx="76.232842"
     inkscape:cy="427.94633"
     inkscape:document-units="px"
     inkscape:current-layer="layer1"
     showgrid="false"
     fit-margin-top="0"
     fit-margin-left="0"
     fit-margin-right="0"
     fit-margin-bottom="0"
     inkscape:window-width="1366"
     inkscape:window-height="709"
     inkscape:window-x="0"
     inkscape:window-y="22"
     inkscape:window-maximized="1" />
  <metadata
     id="metadata7">
    <rdf:RDF>
      <cc:Work
         rdf:about="">
        <dc:format>image/svg+xml</dc:format>
        <dc:type
           rdf:resource="http://purl.org/dc/dcmitype/StillImage" />
        <dc:title />
      </cc:Work>
    </rdf:RDF>
  </metadata>
  <g
     inkscape:label="Capa 1"
     inkscape:groupmode="layer"
     id="layer1"
     transform="translate(-298.76716,-387.54562)">
    <g
       id="g3347"
       transform="matrix(0.99178722,0.12789884,-0.12789884,0.99178722,1221.5985,307.49751)"
       style="fill:#ffffff">
      <path
         style="fill:#ffffff"
         d="m -831.9898,763.61932 c -0.72837,-2.29489 8.97563,-52.21436 10.43352,-53.67225 1.30591,-1.30591 1.5458,-1.1549 21.65911,13.63458 17.32676,12.74051 18.82163,14.06707 18.05009,16.01782 -0.51557,1.30355 -40.66471,23.11414 -44.22433,24.02439 -1.1,0.28129 -2.74685,0.82003 -3.65966,1.19721 -1.13235,0.46789 -1.84999,0.0861 -2.25873,-1.20175 z m 59.15819,-38.00712 c -21.26148,-15.23203 -44.75159,-32.92975 -45.19904,-34.05347 -0.47533,-1.19374 2.85571,-19.20654 12.00859,-64.93703 1.89786,-9.48227 3.45065,-17.46977 3.45065,-17.75 0,-0.28022 1.0125,-0.50229 2.25,-0.49348 3.1031,0.0221 109.14825,78.23634 109.55222,80.80091 0.248,1.57437 -4.50664,4.52089 -26.5,16.42245 -42.15107,22.80977 -45.89015,24.76062 -47.4571,24.76062 -0.81129,0 -4.45868,-2.1375 -8.10532,-4.75 z m 89.66669,-50.58982 c -6.84504,-3.85389 -22.40649,-16.23132 -22.40649,-17.82191 0,-1.5215 14.89599,-22.40248 39.477,-55.33827 2.87338,-3.85 20.4485,-27.7 39.05583,-53 18.60733,-25.3 36.82356,-50.05 40.4805,-55 6.25646,-8.46868 23.75509,-32.24686 86.83751,-118 44.02818,-59.85114 49.0832,-66.5 50.55885,-66.5 2.53382,0 24.59031,17.02959 24.59031,18.98593 0,0.99875 -1.95144,4.44799 -4.33654,7.66499 -12.15043,16.38836 -67.18464,91.04894 -82.4468,111.84908 -14.74833,20.09987 -43.01281,58.49093 -52.64012,71.5 -3.45971,4.675 -22.17738,30.1 -41.59483,56.5 -19.41744,26.4 -38.30463,52.05 -41.97153,57 -21.2492,28.68456 -26.82336,36.28029 -28.46665,38.79061 -2.47534,3.78138 -4.61303,4.79064 -7.13704,3.36957 z m -53.69377,-39.24027 c -8.642,-6.36905 -15.71272,-12.2681 -15.71272,-13.109 0,-1.45784 3.0079,-5.76746 21.5045,-30.81091 4.46841,-6.05 22.68179,-30.8 40.47418,-55 17.79238,-24.2 35.354,-48.05 39.02582,-53 3.67181,-4.95 18.74231,-25.425 33.48999,-45.5 26.17089,-35.62464 35.46582,-48.24023 46.04882,-62.5 2.85731,-3.85 20.58242,-27.925 39.38914,-53.5 25.15657,-34.21007 34.77887,-46.57792 36.4068,-46.79481 2.46133,-0.32792 33.66075,22.05436 33.66075,24.14804 0,1.41433 -3.4449,6.46165 -15.60559,22.86465 -5.00808,6.75517 -28.14817,38.15712 -51.42242,69.78212 -23.27426,31.625 -46.13929,62.675 -50.81118,69 -4.67189,6.325 -10.82116,14.65 -13.66504,18.5 -12.7399,17.24707 -26.44345,35.87051 -43.78148,59.5 -78.98321,107.64394 -79.25189,108 -81.49633,108 -0.98589,0 -8.86325,-5.21104 -17.50524,-11.58009 z m -42.04819,-30.98943 c -8.03423,-5.90246 -11.66453,-9.18223 -11.66453,-10.53824 0,-1.60703 28.17909,-40.72156 68.00256,-94.39224 3.67288,-4.95 18.74441,-25.425 33.49228,-45.5 14.74787,-20.075 30.47974,-41.45 34.95971,-47.5 12.44376,-16.80476 21.54178,-29.15229 57.47267,-78 55.59214,-75.57702 60.08238,-81.56645 61.58098,-82.14152 0.85028,-0.32628 6.10395,2.86531 12.72018,7.72748 11.36098,8.34902 12.74527,9.58964 12.73581,11.41404 -0.003,0.55 -8.13517,12.025 -18.07182,25.5 -9.93664,13.475 -32.96296,44.75 -51.1696,69.5 -18.20664,24.75 -36.76472,49.95 -41.24018,56 -4.47547,6.05 -19.55196,26.525 -33.50332,45.5 -28.02872,38.12136 -39.70386,53.98373 -47.47379,64.5 -5.96797,8.07739 -18.11413,24.56509 -31.30892,42.5 -32.39126,44.02757 -32.3178,43.93331 -34.28203,43.98469 -0.32201,0.008 -5.83451,-3.84097 -12.25,-8.55421 z m 356.83547,-294.22191 c -6.70374,-5.07181 -95.12756,-70.16278 -99.25,-73.06038 -1.84764,-1.29868 -3.25,-3.15959 -3.25,-4.31271 0,-1.80566 6.29663,-10.73459 35.4963,-50.33548 4.46096,-6.05 12.36173,-16.82592 17.55727,-23.94649 10.15145,-13.91272 14.98839,-19.55351 16.76703,-19.55351 2.37015,0 9.35468,4.85069 48.37495,33.59595 22.16745,16.3302 44.08138,32.43915 48.69763,35.79766 4.61625,3.35851 9.56625,7.09269 11,8.29816 l 2.60682,2.19178 -2,3.57369 c -1.1,1.96552 -16.61217,23.36673 -34.4715,47.55822 -24.28383,32.89386 -32.98298,43.98346 -34.5,43.98024 -1.11567,-0.002 -4.2785,-1.70658 -7.0285,-3.78713 z"
         id="path3361"
         inkscape:connector-curvature="0" />
      <path
         style="fill:#ffffff"
         d="m -831.57141,763.2669 c 0,-4.59997 9.36034,-50.4964 10.56322,-51.79453 1.42787,-1.54092 0.47792,-2.15141 25.18678,16.18636 7.2875,5.40845 13.25,10.18453 13.25,10.61352 0,0.42898 -0.7875,1.46516 -1.75,2.30261 -1.87349,1.63008 -45.35433,24.78734 -46.54153,24.78734 -0.38966,0 -0.70847,-0.94289 -0.70847,-2.0953 z m 40.78535,-51.83637 c -13.43488,-9.86243 -24.99532,-18.6164 -25.68986,-19.45327 -1.03514,-1.24726 0.14964,-8.78691 6.5713,-41.81833 7.0984,-36.51239 8.0219,-40.32025 9.83366,-40.54714 1.1744,-0.14707 5.50722,2.37314 10.49955,6.10713 4.675,3.49664 28.525,21.08528 53,39.08586 24.475,18.00059 44.6318,33.29377 44.79289,33.98484 0.37318,1.60094 -0.82071,2.52877 -8.79289,6.83339 -3.575,1.93034 -13.925,7.53967 -23,12.46518 -29.59514,16.06294 -39.70106,21.27401 -41.25712,21.27401 -0.84176,0 -12.52265,-8.06925 -25.95753,-17.93167 z m 105.09824,-39.08144 c -9.6685,-6.53514 -18.37929,-13.60681 -18.67925,-15.16435 -0.27562,-1.43121 6.73897,-11.28649 40.79987,-57.32254 3.66238,-4.95 21.88425,-29.7 40.49305,-55 18.6088,-25.3 36.83196,-50.05 40.49592,-55 3.66396,-4.95 15.59281,-21.15 26.50857,-36 10.91576,-14.85 25.31318,-34.425 31.99426,-43.5 6.68108,-9.075 21.7549,-29.55 33.49738,-45.5 37.50818,-50.94797 40.21444,-54.5 41.52308,-54.5 2.20763,0 23.48353,16.3012 23.48353,17.99264 0,1.47943 -4.01799,7.23569 -21.99277,31.50736 -3.6658,4.95 -28.19628,38.25 -54.51218,74 -26.3159,35.75 -55.64721,75.575 -65.1807,88.5 -9.53349,12.925 -28.24179,38.32595 -41.57399,56.44655 -13.3322,18.1206 -30.89691,41.9706 -39.0327,53 -8.13579,11.0294 -18.40693,25.00345 -22.82475,31.05345 -4.41783,6.05 -8.61366,11.32622 -9.32407,11.72493 -0.74944,0.42061 -3.13182,-0.51888 -5.67525,-2.23804 z M -736.0951,635.3113 c -10.26405,-7.57377 -14.97631,-11.655 -14.97631,-12.97081 0,-1.52747 39.98736,-56.59326 101.59786,-139.90838 3.07882,-4.16345 21.48476,-29.16991 40.90209,-55.56991 19.41732,-26.4 38.30667,-52.05 41.97632,-57 3.66965,-4.95 20.56827,-27.9 37.55248,-51 16.98421,-23.1 31.35082,-42.33018 31.92581,-42.73374 0.57499,-0.40356 1.37025,-0.62856 1.76725,-0.5 2.29659,0.7437 31.77819,23.32667 31.77819,24.34216 0,0.67433 -7.04888,10.8258 -15.66417,22.55882 -20.61327,28.07284 -91.83853,124.85244 -100.33454,136.33276 -4.99305,6.74689 -103.78163,140.90485 -134.20165,182.25 -2.1245,2.8875 -4.6467,5.25 -5.60488,5.25 -0.95818,0 -8.48148,-4.97291 -16.71845,-11.0509 z m -42.29589,-31.1279 c -7.3037,-5.34287 -11.18042,-8.82392 -11.18042,-10.03932 0,-1.55143 21.80025,-31.71851 72.46875,-100.28188 4.47096,-6.05 26.17772,-35.525 48.23725,-65.5 115.40525,-156.81538 133.02116,-180.51325 134.34915,-180.73371 1.86279,-0.30925 23.34064,15.78782 23.68077,17.74809 0.14177,0.81709 -17.32163,25.33562 -38.80757,54.48562 -21.48594,29.15 -47.68037,64.7 -58.20985,79 -10.52948,14.3 -23.46636,31.85 -28.74863,39 -5.28226,7.15 -21.00893,28.525 -34.94814,47.5 -13.93921,18.975 -28.34716,38.55 -32.01766,43.5 -3.6705,4.95 -18.75273,25.425 -33.51606,45.5 -25.08383,34.1087 -28.06877,37.94466 -29.55759,37.98469 -0.31326,0.008 -5.60076,-3.66515 -11.75,-8.16349 z m 308.09952,-330.12185 c -36.74732,-27.06632 -53.22933,-39.77498 -53.25,-41.0591 -0.0165,-1.02286 6.8073,-11.14786 15.16393,-22.5 8.35663,-11.35214 18.83987,-25.59025 23.2961,-31.64025 4.45623,-6.05 12.2958,-16.71465 17.42127,-23.69921 12.5565,-17.11096 11.87566,-16.58942 17.24604,-13.21105 2.3885,1.50255 9.29272,6.40773 15.34272,10.90041 17.07567,12.68026 82.60687,60.83122 86.30545,63.41546 2.01024,1.40457 3.18577,2.99527 3,4.05953 -0.168,0.96249 -15.38045,22.27059 -33.80545,47.35132 -24.87867,33.86569 -34.01471,45.59888 -35.5,45.59179 -1.1,-0.005 -25.94903,-17.64926 -55.22006,-39.2089 z"
         id="path3359"
         inkscape:connector-curvature="0" />
      <path
         style="fill:#ffffff"
         d="m -831.57141,764.07376 c 0,-1.17335 3.17227,-17.49846 8.63969,-44.46156 1.10704,-5.45943 2.132,-8.25 3.03017,-8.25 2.07892,0 36.33014,25.77379 36.33014,27.33816 0,0.76689 -9.17014,6.25128 -20.75,12.40995 -28.41894,15.11442 -27.25,14.55833 -27.25,12.96345 z m 64.69186,-35.82068 c -0.99447,-0.58043 -10.66947,-7.61774 -21.5,-15.63846 -10.83052,-8.02073 -21.60436,-15.94535 -23.94186,-17.61028 -3.10203,-2.20948 -4.25028,-3.71795 -4.25105,-5.58464 -5.8e-4,-1.40663 2.89914,-17.4075 6.44383,-35.5575 3.54468,-18.15 6.75439,-34.8 7.13268,-37 0.90451,-5.26037 2.27211,-7.77247 3.89278,-7.15056 1.14532,0.4395 15.98082,11.28657 63.66409,46.54843 6.39779,4.73117 18.66029,13.76513 27.25,20.07547 8.58972,6.31033 15.61403,12.16033 15.60959,13 -0.004,0.83966 -2.59194,2.89051 -5.75,4.55745 -3.15806,1.66693 -18.79192,10.07727 -34.74192,18.68965 -15.95,8.61238 -29.675,15.89892 -30.5,16.19232 -0.825,0.29339 -2.31366,0.0585 -3.30814,-0.52188 z m 73.44638,-62.01177 c -6.12603,-4.46649 -11.13824,-8.52084 -11.13824,-9.00967 0,-0.48882 2.39653,-4.14692 5.32562,-8.12911 33.41899,-45.43411 74.37083,-101.06735 79.67612,-108.24033 6.36793,-8.60973 51.37303,-69.73879 115.22011,-156.5 53.20457,-72.29919 53.7384,-73.00062 55.54587,-72.9857 1.89858,0.0157 23.23228,15.48221 23.23228,16.84298 0,0.46345 -1.43221,2.82266 -3.18269,5.24268 -3.56116,4.92327 -50.91987,69.29394 -65.74343,89.35947 -22.56271,30.54142 -26.39548,35.7435 -79.60154,108.04057 -18.6192,25.3 -39.05492,53.04862 -45.41272,61.66359 -6.35779,8.61498 -22.51329,30.55248 -35.9011,48.75 -13.38781,18.19753 -24.9131,33.08641 -25.61176,33.08641 -0.69865,0 -6.28249,-3.6544 -12.40852,-8.12089 z m -42.15923,-31.10505 c -8.42533,-6.21134 -15.45936,-11.73901 -15.6312,-12.2837 -0.17183,-0.5447 5.86712,-9.38567 13.41988,-19.6466 7.55277,-10.26093 17.31485,-23.53593 21.69351,-29.5 4.37867,-5.96407 11.62191,-15.79376 16.09611,-21.84376 4.4742,-6.05 24.69266,-33.5 44.92991,-61 20.23726,-27.5 40.89401,-55.56295 45.9039,-62.3621 22.8507,-31.01178 27.33454,-37.10258 44.2715,-60.1379 56.37806,-76.67765 66.64211,-90.59223 67.48974,-91.49338 1.25384,-1.33299 3.65397,0.12797 19.6811,11.9799 10.81041,7.99422 13.25616,10.25296 12.92497,11.93673 -0.22466,1.14221 -15.68684,22.77675 -34.36039,48.07675 -18.67355,25.3 -45.63979,61.90375 -59.92497,81.34166 -14.28519,19.43792 -32.16326,43.73792 -39.72904,54 -7.56578,10.26209 -20.04469,27.20834 -27.7309,37.65834 -89.62727,121.85525 -91.03443,123.74275 -92.61424,124.2287 -0.60561,0.18629 -7.99456,-4.7433 -16.41988,-10.95464 z m -42.97901,-31.73465 c -5.775,-4.35057 -10.5,-8.58882 -10.5,-9.41833 0,-1.37229 12.12886,-18.16653 59.26933,-82.06734 8.94814,-12.12956 22.55795,-30.60374 30.24403,-41.05374 7.68609,-10.45 20.16489,-27.40075 27.73067,-37.66834 7.56578,-10.26758 25.95015,-35.24258 40.85416,-55.5 79.96481,-108.6876 92.731,-125.98442 94.20902,-127.6432 0.88778,-0.99634 2.35848,-1.61689 3.26822,-1.37899 3.32473,0.86944 21.87034,15.20318 21.89736,16.92427 0.015,0.95356 -15.64112,23.00356 -34.79131,49 -19.15019,25.99644 -56.35206,76.51626 -82.67084,112.26626 -26.31877,35.75 -50.84326,69.05 -54.49887,74 -3.6556,4.95 -14.91265,20.25 -25.01566,34 -10.10302,13.75 -22.8977,31.14128 -28.43262,38.64728 -5.53492,7.506 -14.07419,19.0935 -18.97615,25.75 -4.98139,6.76434 -9.61282,12.09159 -10.5,12.07749 -0.87304,-0.0139 -6.31234,-3.58479 -12.08734,-7.93536 z M -429.22704,303.5966 c -21.02377,-15.55636 -39.9768,-29.52115 -68.09437,-50.17267 -14.4375,-10.60391 -26.25,-19.84508 -26.25,-20.53593 0,-0.69084 0.8441,-2.32927 1.87578,-3.64094 1.03168,-1.31167 15.92628,-21.50986 33.09912,-44.88486 17.17283,-23.375 31.8214,-43.1266 32.55237,-43.89244 1.12437,-1.17801 4.5357,0.96592 22.15089,13.92121 11.45201,8.42251 35.82241,26.3369 54.15643,39.80975 27.7981,20.42756 33.26676,24.842 32.92613,26.57878 -0.34993,1.78422 -15.55416,22.79611 -58.12883,80.3327 -4.98547,6.7375 -9.52965,12.24298 -10.09819,12.2344 -0.56853,-0.009 -6.95374,-4.39609 -14.18933,-9.75 z"
         id="path3357"
         inkscape:connector-curvature="0" />
      <path
         style="fill:#ffffff"
         d="m -830.10572,758.1122 c 0.67216,-3.4375 2.90156,-14.82879 4.95422,-25.31398 2.05267,-10.48519 4.10226,-19.66287 4.55465,-20.39485 0.61288,-0.99167 5.43904,2.07455 18.93524,12.0302 9.96199,7.3486 17.95931,13.8213 17.77182,14.38378 -0.32294,0.96882 -45.30184,25.54485 -46.75204,25.54485 -0.3773,0 -0.13605,-2.8125 0.53611,-6.25 z m 39.89071,-47.33129 c -13.12102,-9.66971 -24.4754,-18.17978 -25.23195,-18.91127 -1.16443,-1.12584 -0.1995,-7.35329 6.28676,-40.57368 4.21427,-21.58404 7.89733,-39.62397 8.18457,-40.08873 0.28724,-0.46477 0.98106,-0.84503 1.54182,-0.84503 0.56076,0 12.57171,8.51022 26.69099,18.9116 14.11927,10.40138 37.82141,27.85863 52.67141,38.79389 14.85,10.93525 27,20.45731 27,21.16013 0,0.70281 -2.7,2.75101 -6,4.55153 -46.80655,25.53834 -64.00254,34.58285 -65.7511,34.58285 -0.84485,0 -12.27147,-7.91158 -25.3925,-17.58129 z m 97.73758,-44.48329 c -8.37994,-6.06422 -11.15255,-8.60345 -10.8128,-9.90266 0.2513,-0.96098 15.51002,-22.17398 33.90825,-47.14 18.39824,-24.96602 48.00848,-65.19276 65.80055,-89.39276 17.79207,-24.2 34.68791,-47.15 37.54633,-51 6.25832,-8.42933 103.90568,-141.13822 110.96289,-150.80553 3.27855,-4.49112 5.50566,-6.66496 6.54882,-6.39216 0.8694,0.22735 6.16201,3.73984 11.76135,7.80553 7.83566,5.68948 10.10573,7.85283 9.85549,9.39216 -0.17883,1.1 -14.26792,20.9 -31.3091,44 -17.04118,23.1 -54.99429,74.625 -84.34025,114.5 -29.34596,39.875 -56.35164,76.55 -60.01264,81.5 -3.66099,4.95 -21.8685,29.7 -40.46113,55 -18.59262,25.3 -34.78876,47.03294 -35.99141,48.29543 l -2.18664,2.29542 -11.26971,-8.15543 z m -41.59398,-30.50935 c -16.44504,-12.08283 -17.30354,-12.90976 -15.83836,-15.25589 0.95814,-1.53421 106.45981,-145.02272 121.81103,-165.67018 2.86244,-3.85 26.73071,-36.25 53.0406,-72 26.30989,-35.75 50.82933,-69.05 54.48765,-74 3.65832,-4.95 10.56593,-14.30631 15.35023,-20.7918 l 8.69874,-11.7918 2.72506,1.61207 c 4.91133,2.90543 28.57826,20.94547 28.93347,22.05445 0.19077,0.59561 -3.15308,5.84465 -7.43078,11.66455 -4.2777,5.81989 -13.83714,18.83258 -21.2432,28.91708 -7.40607,10.0845 -18.45552,25.08545 -24.55435,33.33545 -10.59678,14.33445 -39.5059,53.58947 -149.86633,203.5 -28.16599,38.2599 -50.433,67.60347 -51.4028,67.73885 -0.94103,0.13136 -7.56096,-4.05939 -14.71096,-9.31278 z m -43.56092,-32.18846 c -5.72905,-4.26931 -10.56057,-8.5107 -10.73671,-9.4253 -0.1811,-0.9404 9.4035,-14.83851 22.05971,-31.98761 12.30897,-16.67858 55.16086,-74.8747 95.22641,-129.3247 40.06556,-54.45 77.17199,-104.85 82.45875,-112 5.28676,-7.15 19.46085,-26.3875 31.49799,-42.75 12.03713,-16.3625 22.29865,-29.75 22.80337,-29.75 1.43339,0 22.7514,16.09505 22.7514,17.17726 0,0.83065 -11.80713,17.06419 -58.5,80.43121 -4.95,6.71766 -12.58732,17.09139 -16.97182,23.05273 -43.11702,58.62357 -64.94369,88.28069 -70.53421,95.8388 -3.66138,4.95 -21.87907,29.7 -40.48376,55 -18.60469,25.3 -36.1564,49.15 -39.0038,53 -2.8474,3.85 -10.42418,14.0875 -16.83728,22.75 -6.4131,8.6625 -12.0322,15.75 -12.48688,15.75 -0.45469,0 -5.51411,-3.49307 -11.24317,-7.76239 z m 308.06092,-330.16755 c -28.875,-21.34308 -52.64322,-39.5283 -52.81827,-40.41161 -0.27117,-1.36831 11.15066,-17.27468 57.37064,-79.89601 3.95295,-5.35566 7.80827,-10.673 8.5674,-11.8163 1.34123,-2.02 1.71927,-1.82833 13.38023,6.78406 6.6,4.87453 30,22.07838 52,38.23078 40.39441,29.65756 44.5,32.80429 44.5,34.10698 0,0.39563 -9.2275,13.25469 -20.50555,28.57569 -11.27805,15.32099 -26.3806,35.84385 -33.56122,45.60635 -8.23878,11.20114 -13.67875,17.72706 -14.74445,17.68783 -0.92883,-0.0342 -25.31378,-17.52469 -54.18878,-38.86777 z"
         id="path3355"
         inkscape:connector-curvature="0" />
      <path
         style="fill:#ffffff"
         d="m -830.064,761.52559 c 0.45721,-3.58306 8.46323,-45.1836 9.13863,-47.48571 0.33679,-1.14794 1.10738,-1.60254 2.08229,-1.22844 3.45705,1.3266 34.33625,24.861 34.00194,25.91439 -0.19836,0.625 -7.08132,4.74636 -15.29546,9.15856 -8.21415,4.4122 -18.38461,9.88573 -22.60103,12.16339 l -7.66622,4.1412 0.33985,-2.66339 z m 62.92999,-34.44574 c -1.13443,-0.66971 -3.60943,-2.39312 -5.5,-3.82981 -1.89057,-1.43668 -12.38291,-9.23274 -23.31632,-17.32457 l -19.87891,-14.71241 0.62016,-5.17543 c 0.5223,-4.35873 12.46579,-66.33788 14.16673,-73.51635 0.3055,-1.28928 1.1009,-2.13132 1.77055,-1.87435 0.66872,0.25661 21.23738,15.21519 45.70813,33.24128 24.47074,18.0261 47.96832,35.29455 52.21684,38.37435 4.24851,3.0798 7.62351,6.22452 7.5,6.98825 -0.12352,0.76374 -4.94958,3.93139 -10.72458,7.03924 -5.775,3.10784 -21.075,11.35086 -34,18.31782 -12.925,6.96696 -24.175,12.89725 -25,13.17842 -0.825,0.28116 -2.42817,-0.0367 -3.5626,-0.70644 z m 74.87603,-61.13189 c -5.54917,-4.07784 -10.37482,-7.87608 -10.72368,-8.44054 -0.34886,-0.56446 9.56967,-14.89056 22.04116,-31.83576 12.4715,-16.9452 29.24402,-39.73875 37.27227,-50.65232 8.02825,-10.91358 20.67182,-28.09043 28.09682,-38.17078 114.77789,-155.82511 127.50848,-173.11976 149.60238,-203.23636 8.57409,-11.6875 16.26223,-21.25 17.08476,-21.25 2.62756,0 22.4529,15.19267 21.85581,16.74867 -0.4561,1.18857 -41.54896,57.30539 -84.02937,114.75133 -6.10075,8.25 -19.69867,26.7 -30.2176,41 -41.60871,56.56512 -49.58956,67.41042 -70.76707,96.16642 -12.0841,16.40847 -27.62425,37.48358 -34.53366,46.83358 -6.90942,9.35 -17.2524,23.4125 -22.9844,31.25 -5.73201,7.8375 -10.91373,14.25 -11.51493,14.25 -0.6012,0 -5.63332,-3.33641 -11.18249,-7.41424 z m -42.87351,-31.59259 c -8.21695,-6.07578 -15.04446,-11.37229 -15.17223,-11.77002 -0.12776,-0.39773 5.94724,-9.12417 13.5,-19.39209 7.55277,-10.26791 28.53286,-38.75851 46.62243,-63.31244 18.08956,-24.55393 36.31456,-49.30506 40.5,-55.0025 10.50176,-14.29558 57.63463,-78.26562 68.60988,-93.11924 4.95,-6.69921 25.875,-35.15883 46.5,-63.24362 20.625,-28.08479 38.0199,-51.0835 38.65533,-51.10825 1.94388,-0.0757 29.82689,21.04513 30.10747,22.80584 0.14454,0.90703 -19.33818,28.19915 -43.29494,60.64915 -23.95675,32.45 -45.9904,62.375 -48.96367,66.5 -2.97326,4.125 -19.67568,26.85 -37.11649,50.5 -17.4408,23.65 -34.90041,47.33758 -38.79913,52.63906 -3.89871,5.30149 -13.0075,17.67649 -20.24175,27.5 -7.23426,9.82352 -24.55926,33.3529 -38.5,52.28752 -13.94075,18.93462 -25.82385,34.58113 -26.4069,34.77002 -0.58304,0.1889 -7.78304,-4.62764 -16,-10.70343 z m -42.93992,-31.57668 c -5.5,-4.10969 -10.1479,-7.90334 -10.32867,-8.43033 -0.18077,-0.527 11.96923,-17.65828 27,-38.0695 15.03077,-20.41123 37.64368,-51.13003 50.25091,-68.26399 32.31349,-43.91591 50.23743,-68.26245 80.07776,-108.7716 14.3,-19.41268 32.525,-44.16642 40.5,-55.0083 47.69321,-64.83813 55.25237,-74.87277 56.40211,-74.87277 2.0329,0 21.59789,14.9039 21.59789,16.45248 0,1.18917 -27.99943,39.5447 -118.29423,162.04752 -8.10792,11 -21.02516,28.55 -28.70497,39 -7.67982,10.45 -27.71946,37.675 -44.53252,60.5 -16.81307,22.825 -37.40901,50.82888 -45.76875,62.23085 -8.35974,11.40197 -15.87453,20.71442 -16.69953,20.69432 -0.825,-0.0201 -6,-3.399 -11.5,-7.50868 z m 355.5,-295.29433 c -9.91798,-7.41349 -89.85107,-66.21584 -95.25,-70.07016 -2.6125,-1.86507 -4.74019,-3.87726 -4.72819,-4.47152 0.0169,-0.83677 65.15658,-90.0922 67.35429,-92.28991 0.48764,-0.48764 7.903,4.83734 51.1239,36.71214 10.45,7.70673 27.45915,20.19637 37.7981,27.75476 15.05895,11.00899 18.72292,14.14035 18.42012,15.74253 -0.20789,1.1 -14.47038,21.125 -31.69443,44.5 -30.72136,41.69242 -34.78916,47.00974 -35.9481,46.99039 -0.31663,-0.005 -3.50069,-2.19599 -7.07569,-4.86823 z"
         id="path3353"
         inkscape:connector-curvature="0" />
      <path
         style="fill:#ffffff"
         d="m -829.57141,761.23034 c 0,-4.20543 9.48487,-47.86129 10.39185,-47.8304 1.96938,0.0671 33.10815,23.60049 33.10815,25.02179 0,1.17533 -40.61424,23.91295 -42.75,23.93332 -0.4125,0.004 -0.75,-0.50219 -0.75,-1.12471 z m 46.98017,-46.00599 c -9.06409,-6.67581 -20.19267,-14.85931 -24.73017,-18.18554 -4.5375,-3.32623 -8.25,-6.54529 -8.25,-7.15345 0,-0.83618 10.65453,-56.10885 14.60627,-75.77316 0.30395,-1.5125 0.96148,-2.75 1.46118,-2.75 0.4997,0 18.12644,12.67852 39.17055,28.17449 21.0441,15.49597 42.537,31.31563 47.762,35.15479 17.24121,12.6683 18.9118,14.00441 18.44819,14.75455 -0.25267,0.40883 -11.59438,6.79949 -25.20379,14.20148 -38.26275,20.8106 -43.81679,23.71469 -45.35413,23.71469 -0.78646,0 -8.846,-5.46203 -17.9101,-12.13785 z m 90.88266,-49.48263 c -6.11755,-4.48599 -10.33434,-8.27099 -10.29329,-9.23928 0.0382,-0.90213 10.85924,-16.26524 24.04667,-34.14024 13.18742,-17.875 34.73575,-47.125 47.88517,-65 20.6352,-28.05097 92.7503,-125.98423 119.66011,-162.5 4.86378,-6.6 20.44491,-27.75 34.62473,-47 14.17983,-19.25 26.33516,-35 27.01185,-35 1.8581,0 21.20593,14.44792 21.17511,15.81243 -0.0148,0.65316 -8.34119,12.43757 -18.50319,26.18757 -10.162,13.75 -24.41847,33.1 -31.68103,43 -12.64998,17.24387 -27.24072,37.05842 -38.29099,52 -2.84733,3.85 -33.00173,44.8 -67.00977,91 -34.00805,46.2 -66.15761,89.85 -71.44348,97 -5.28586,7.15 -13.16072,17.85877 -17.49967,23.79727 -4.33895,5.9385 -8.21084,10.99618 -8.60419,11.23928 -0.39336,0.24311 -5.37847,-2.97756 -11.07803,-7.15703 z m -43.33981,-31.83766 c -7.68733,-5.72204 -14.12411,-10.84514 -14.30396,-11.38467 -0.17984,-0.53952 4.43894,-7.4331 10.26395,-15.31907 5.82501,-7.88596 13.03419,-17.71312 16.02041,-21.83812 2.98621,-4.125 11.63208,-15.90495 19.21303,-26.17767 7.58095,-10.27272 21.03092,-28.49772 29.88883,-40.5 8.8579,-12.00228 32.66141,-44.32233 52.89669,-71.82233 37.75071,-51.3037 48.63337,-66.0795 63.59861,-86.3503 4.73032,-6.40733 20.18939,-27.3997 34.35349,-46.6497 14.16411,-19.25 26.08538,-35.35653 26.49172,-35.79229 1.09725,-1.17671 31.28827,21.23997 30.69354,22.7898 -0.27128,0.70694 -16.85269,23.49671 -36.84757,50.64392 -19.99489,27.14721 -43.09026,58.50735 -51.32305,69.6892 -17.20846,23.37267 -36.32272,49.31613 -56.72468,76.99143 -7.83422,10.62713 -16.49403,22.41406 -19.24403,26.19318 -5.61794,7.72032 -33.64978,45.79208 -66.24497,89.97136 -11.96527,16.21763 -22.43003,29.59288 -23.25503,29.72279 -0.825,0.12991 -7.78964,-4.44548 -15.47698,-10.16753 z m -42.27302,-31.16104 c -5.6375,-4.16599 -10.25,-8.15153 -10.25,-8.85677 0,-0.70523 15.20544,-21.92414 33.78987,-47.15314 28.72865,-39.00014 57.73783,-78.41463 94.73436,-128.71467 4.38667,-5.96407 14.05077,-19.08478 21.47577,-29.15714 21.64312,-29.35989 40.75841,-55.35093 70.97094,-96.4991 15.54749,-21.175 29.27586,-39.55128 30.50751,-40.83618 l 2.23936,-2.33618 10.39109,7.64676 c 5.71511,4.20572 10.53458,8.04995 10.70995,8.54274 0.17537,0.49279 -3.45128,5.97802 -8.05923,12.18942 -4.60795,6.21139 -12.82478,17.36844 -18.25962,24.79344 -10.04935,13.72927 -22.65147,30.86036 -31.99983,43.5 -2.84748,3.85 -27.37096,37.15 -54.4966,74 -121.16512,164.60196 -140.3206,190.49867 -140.89394,190.47768 -0.3353,-0.0123 -5.22213,-3.43086 -10.85963,-7.59686 z m 354.5457,-296.1012 c -6.6722,-4.78972 -22.3468,-16.31479 -71.7957,-52.78924 -14.575,-10.75079 -26.63845,-20.17259 -26.80766,-20.93733 -0.16922,-0.76473 4.28725,-7.61452 9.90326,-15.22174 44.93081,-60.86147 55.90737,-75.83176 56.32308,-76.81573 0.28487,-0.67429 0.70668,-0.65967 1.25519,0.0435 0.45437,0.58249 18.60113,14.11862 40.32613,30.08029 63.95103,46.98575 66,48.51603 66,49.29231 0,0.40844 -4.8375,7.29378 -10.75,15.30076 -12.89715,17.46592 -22.00631,29.84975 -41.02086,55.76756 -7.86838,10.725 -14.8617,19.62583 -15.54072,19.77962 -0.67902,0.1538 -4.23074,-1.8712 -7.89272,-4.5 z"
         id="path3351"
         inkscape:connector-curvature="0" />
      <path
         style="fill:#ffffff"
         d="m -828.57141,760.39033 c 0,-2.98513 8.60142,-44.96288 9.37072,-45.73218 0.62087,-0.62087 32.62928,22.7038 32.62928,23.77711 0,0.38619 -7.5375,4.75118 -16.75,9.69997 -22.66288,12.17409 -25.25,13.42975 -25.25,12.2551 z m 47.85875,-44.77813 c -8.00657,-5.9125 -18.88569,-13.9 -24.17582,-17.75 -5.29013,-3.85 -9.63294,-7.6955 -9.65068,-8.54556 -0.0177,-0.85006 2.83821,-16.15006 6.34655,-34 3.50835,-17.84994 6.68045,-34.26364 7.04912,-36.4749 1.23234,-7.39142 1.34273,-7.37507 14.18849,2.10139 25.39979,18.73771 46.79873,34.48523 69.88359,51.42749 19.19285,14.08586 21.5,15.89961 21.5,16.90216 0,0.45392 -6.1875,4.12311 -13.75,8.15375 -7.5625,4.03065 -22.65909,12.19007 -33.54797,18.13206 -10.88888,5.94198 -20.58275,10.80361 -21.54192,10.80361 -0.95917,0 -8.29478,-4.8375 -16.30136,-10.75 z m 89.35157,-50.48269 c -5.58529,-3.99702 -10.16002,-7.71731 -10.16607,-8.26731 -0.006,-0.55 6.16901,-9.39531 13.72237,-19.65624 7.55336,-10.26093 17.31854,-23.53593 21.70041,-29.5 13.17279,-17.92921 27.60001,-37.53144 31.53297,-42.84376 2.03596,-2.75 8.16889,-11.075 13.62874,-18.5 5.45985,-7.425 26.78946,-36.37666 47.39913,-64.33703 20.60967,-27.96036 42.19713,-57.28557 47.97213,-65.16712 5.775,-7.88156 17.025,-23.17482 25,-33.98503 7.975,-10.81021 16.75,-22.74483 19.5,-26.52137 20.87857,-28.67226 31.8277,-43.04666 32.59359,-42.79001 2.2756,0.76252 19.90306,14.25794 19.87694,15.2176 -0.0162,0.59563 -3.19579,5.35796 -7.06575,10.58296 -3.86996,5.225 -9.35501,12.65 -12.18901,16.5 -2.834,3.85 -9.46655,12.85 -14.73901,20 -5.27246,7.15 -13.83664,18.78263 -19.03152,25.8503 -5.19488,7.06766 -13.312,18.09266 -18.03803,24.5 -4.72604,6.40733 -15.54391,21.0997 -24.03972,32.6497 -8.49581,11.55 -23.52905,31.94577 -33.40721,45.32393 -37.3342,50.56236 -45.68059,61.88659 -50.98541,69.17607 -8.0144,11.01277 -14.32626,19.61746 -30.20559,41.17794 -7.82689,10.62713 -20.36157,27.64706 -27.85485,37.82206 -7.49327,10.175 -13.94473,18.84529 -14.33659,19.26731 -0.39185,0.42202 -5.28224,-2.50298 -10.86752,-6.5 z m -43.21032,-31.85356 c -7.425,-5.50918 -13.63946,-10.41192 -13.80992,-10.89497 -0.17045,-0.48306 5.00455,-8.0656 11.5,-16.85009 6.49546,-8.78449 15.70845,-21.3036 20.47332,-27.82024 4.76486,-6.51665 23.10223,-31.42345 40.7497,-55.34845 31.04909,-42.09382 43.19752,-58.58629 57.0869,-77.5 16.54761,-22.53353 23.97415,-32.61927 61.85261,-84 4.86559,-6.6 19.09652,-25.95 31.62429,-43 12.52777,-17.05 23.89307,-32.49489 25.25622,-34.32198 1.36316,-1.82709 3.0948,-3.55849 3.8481,-3.84756 1.78045,-0.68322 29.61681,19.71111 29.02145,21.26259 -0.24922,0.64946 -13.66202,19.11921 -29.80622,41.04389 -16.1442,21.92468 -32.94034,44.74275 -37.32477,50.70682 -4.38442,5.96407 -14.16187,19.23907 -21.72765,29.5 -7.56578,10.26093 -20.0506,27.20624 -27.74403,37.65624 -7.69343,10.45 -20.17825,27.40122 -27.74403,37.66937 -7.56578,10.26816 -20.49111,27.81816 -28.72295,39 -8.23184,11.18185 -25.73341,34.95563 -38.89237,52.83063 -38.40267,52.1658 -39.79739,54.00171 -40.99706,53.96522 -0.62898,-0.0191 -7.21859,-4.5423 -14.64359,-10.05147 z m -42,-30.97589 c -5.225,-3.85957 -9.62906,-7.58914 -9.78679,-8.28792 -0.24456,-1.08346 14.38904,-21.34935 62.92924,-87.14994 23.91157,-32.41426 27.8212,-37.72601 33.85755,-46 6.03857,-8.27702 10.08503,-13.77465 33.85773,-46 4.86883,-6.6 25.41351,-34.5 45.65485,-62 50.20189,-68.20459 52.99304,-71.99339 65.01235,-88.25 5.79464,-7.8375 10.74585,-14.25 11.00267,-14.25 0.75434,0 19.30952,13.92743 19.96225,14.98358 0.32753,0.52995 -3.6566,6.71294 -8.85362,13.73998 -5.19701,7.02704 -25.02354,33.92644 -44.05895,59.77644 -19.03541,25.85 -41.01501,55.69493 -48.84356,66.32206 -7.82855,10.62713 -16.48372,22.40272 -19.23372,26.16798 -2.75,3.76526 -9.05,12.33483 -14,19.04349 -17.37091,23.54252 -30.59096,41.53666 -35.97502,48.96647 -18.32202,25.28378 -80.78514,109.53859 -81.34764,109.72763 -0.37254,0.1252 -4.95234,-2.93019 -10.17734,-6.78977 z m 353.44359,-296.8873 c -3.81898,-2.72218 -16.39359,-11.95443 -27.94359,-20.51609 -11.55,-8.56167 -31.90548,-23.54692 -45.2344,-33.30057 -15.92303,-11.65192 -24.15402,-18.27946 -24,-19.32466 0.25461,-1.72793 64.82819,-89.84778 65.86777,-89.88597 0.34836,-0.0128 10.47336,7.2449 22.5,16.12823 12.02665,8.88332 24.10958,17.77082 26.85096,19.75 27.7182,20.01152 55.99671,41.46157 55.91791,42.41531 -0.0538,0.65075 -13.50934,19.40819 -29.90128,41.68319 -16.39193,22.275 -30.97294,42.17042 -32.40224,44.21205 -1.4293,2.04163 -3.07411,3.72913 -3.65513,3.75 -0.58103,0.0209 -4.18103,-2.1893 -8,-4.91149 z"
         id="path3349"
         inkscape:connector-curvature="0" />
    </g>
  </g>
</svg>
