<?xml version="1.0" encoding="UTF-8" standalone="no"?>
<!-- Created with Inkscape (http://www.inkscape.org/) -->

<svg
   xmlns:dc="http://purl.org/dc/elements/1.1/"
   xmlns:cc="http://creativecommons.org/ns#"
   xmlns:rdf="http://www.w3.org/1999/02/22-rdf-syntax-ns#"
   xmlns:svg="http://www.w3.org/2000/svg"
   xmlns="http://www.w3.org/2000/svg"
   xmlns:sodipodi="http://sodipodi.sourceforge.net/DTD/sodipodi-0.dtd"
   xmlns:inkscape="http://www.inkscape.org/namespaces/inkscape"
   width="89.839188mm"
   height="123.55335mm"
   viewBox="0 0 318.32783 437.78746"
   id="svg2"
   version="1.1"
   inkscape:version="0.91 r13725"
   sodipodi:docname="papelera.svg">
  <defs
     id="defs4" />
  <sodipodi:namedview
     id="base"
     pagecolor="#ffffff"
     bordercolor="#666666"
     borderopacity="1.0"
     inkscape:pageopacity="0.0"
     inkscape:pageshadow="2"
     inkscape:zoom="0.35"
     inkscape:cx="-3.0016792"
     inkscape:cy="310.43215"
     inkscape:document-units="px"
     inkscape:current-layer="layer1"
     showgrid="false"
     fit-margin-top="0"
     fit-margin-left="0"
     fit-margin-right="0"
     fit-margin-bottom="0"
     inkscape:window-width="1366"
     inkscape:window-height="709"
     inkscape:window-x="0"
     inkscape:window-y="22"
     inkscape:window-maximized="1" />
  <metadata
     id="metadata7">
    <rdf:RDF>
      <cc:Work
         rdf:about="">
        <dc:format>image/svg+xml</dc:format>
        <dc:type
           rdf:resource="http://purl.org/dc/dcmitype/StillImage" />
        <dc:title />
      </cc:Work>
    </rdf:RDF>
  </metadata>
  <g
     inkscape:label="Capa 1"
     inkscape:groupmode="layer"
     id="layer1"
     transform="translate(-378.00168,-405.00687)">
    <path
       style="fill:#ffffff"
       d="m 434.9553,841.7876 c -11.96074,-2.34461 -23.75197,-11.84369 -29.33669,-23.63381 l -3.20861,-6.77383 0,-150.5 0,-150.5 135,0 135,0 0.28083,145.5 c 0.19509,101.07681 -0.0499,147.44853 -0.80227,151.88206 -2.89143,17.03752 -15.75513,30.37801 -32.77778,33.99268 -6.42901,1.36516 -197.20224,1.39591 -204.15548,0.0329 z m 30.89304,-41.73491 c 1.87392,-1.00499 4.2294,-3.36047 5.23439,-5.23439 1.73971,-3.24387 1.82727,-8.98463 1.82727,-119.8047 0,-114.95561 -0.025,-116.43798 -2.01576,-119.65914 -3.74952,-6.06684 -11.54349,-8.06359 -17.99984,-4.6114 -7.52034,4.02109 -6.96616,-5.85341 -6.99267,124.59625 -0.0225,110.67825 0.0706,116.9646 1.77628,119.92085 3.49884,6.06417 11.74416,8.23893 18.17033,4.79253 z m 78.8698,-0.19713 c 1.91004,-1.16452 4.11954,-3.80435 5.22804,-6.24626 1.857,-4.09078 1.92056,-7.98057 1.9403,-118.72934 0.0191,-107.05849 -0.0932,-114.72285 -1.72803,-117.92892 -5.15177,-10.10324 -18.32508,-10.55417 -24.25385,-0.83022 -1.95263,3.20256 -1.98719,5.27326 -1.99086,119.27474 -0.004,110.45416 0.0839,116.17893 1.82353,119.42274 3.53524,6.59184 12.52009,8.9763 18.98087,5.03726 z m 80.16595,-1.45078 c 1.58433,-1.51788 3.36997,-3.94441 3.96811,-5.3923 0.76738,-1.85758 1.00955,-37.02296 0.82266,-119.45949 L 629.41,556.72602 625.70885,553.3343 c -4.32274,-3.96134 -7.39953,-4.93944 -12.51763,-3.97928 -4.50492,0.84513 -9.73442,6.04094 -10.64065,10.5721 -0.35231,1.76156 -0.63987,54.33409 -0.63902,116.82784 0.002,126.93955 -0.51392,117.88074 6.99845,122.94418 4.7986,3.23433 11.84294,2.66354 15.97409,-1.29436 z M 378.22713,494.264 c -1.03156,-2.68819 1.63674,-14.49523 4.7514,-21.02462 5.72799,-12.00782 17.82072,-22.39164 30.71468,-26.37418 6.25592,-1.93226 9.54169,-1.98524 123.11203,-1.98524 101.60678,0 117.44504,0.19808 122.5698,1.53291 15.38198,4.0065 27.9002,15.4013 33.7112,30.68587 2.7735,7.29494 4.0741,15.77468 2.6776,17.45738 -0.9032,1.08823 -29.20303,1.32384 -159.00767,1.32384 -144.47711,0 -157.96169,-0.13745 -158.52904,-1.61596 z M 486.66,430.32474 c -2.55442,-2.65017 0.86841,-12.90934 6.02867,-18.0696 6.74103,-6.74103 7.35163,-6.84359 42.72133,-7.17521 23.26821,-0.21816 33.22791,0.0396 36.5,0.94464 8.37396,2.31618 17,13.33793 17,21.72141 l 0,2.13398 -43.34912,0 c -23.84202,0 -46.67952,0.27515 -50.75,0.61145 -4.07049,0.33629 -7.73838,0.26129 -8.15088,-0.16667 z"
       id="path3393"
       inkscape:connector-curvature="0" />
  </g>
</svg>
